{"title":"My Bloody Valentine - AVM","uid":5045225,"size":228184057,"categoryP":"video","categoryS":"handheld","magnet":"?xt=urn:btih:41737bdf6848ea1d6088e1a799b6bcd40760fe75&amp;dn=My+Bloody+Valentine+-+AVM&amp;tr=udp%3A%2F%2Ftracker.openbittorrent.com%3A80&amp;tr=udp%3A%2F%2Fopen.demonii.com%3A1337&amp;tr=udp%3A%2F%2Ftracker.coppersurfer.tk%3A6969&amp;tr=udp%3A%2F%2Fexodus.desync.com%3A6969","seeders":0,"leechers":1,"uploader":"AVIDM","files":1,"time":1249592863,"description":"AVIDMobile - http://www.avidmobile.com.ar (Mobile media)\n\nVideo\nID                               : 1\nFormat                           : MPEG-4 Visual\nFormat profile                   : Advanced Simple@L5\nFormat settings, BVOP            : Yes\nFormat settings, QPel            : No\nFormat settings, GMC             : No warppoints\nFormat settings, Matrix          : Default (H.263)\nCodec ID                         : 20\nDuration                         : 1h 41mn\nBit rate mode                    : Variable\nBit rate                         : 235 Kbps\nMaximum bit rate                 : 993 Kbps\nWidth                            : 320 pixels\nHeight                           : 240 pixels\nDisplay aspect ratio             : 4/3\nFrame rate mode                  : Variable\nFrame rate                       : 23.976 fps\nMinimum frame rate               : 23.974 fps\nMaximum frame rate               : 23.981 fps\nResolution                       : 24 bits\nColorimetry                      : 4:2:0\nScan type                        : Progressive\nBits/(Pixel*Frame)               : 0.128\nStream size                      : 170 MiB (78%)\n\nAudio\nID                               : 2\nFormat                           : AAC\nFormat/Info                      : Advanced Audio Codec\nFormat version                   : Version 4\nFormat profile                   : LC\nFormat settings, SBR             : No\nCodec ID                         : 40\nDuration                         : 1h 41mn\nBit rate mode                    : Variable\nBit rate                         : 62.8 Kbps\nMaximum bit rate                 : 96.3 Kbps\nChannel(s)                       : 2 channels\nChannel positions                : L R\nSampling rate                    : 22.05 KHz\nResolution                       : 16 bits\nStream size                      : 45.4 MiB (21%)","torrent":{"xt":"urn:btih:41737bdf6848ea1d6088e1a799b6bcd40760fe75","amp;dn":"My+Bloody+Valentine+-+AVM","amp;tr":["udp%3A%2F%2Ftracker.openbittorrent.com%3A80","udp%3A%2F%2Fopen.demonii.com%3A1337","udp%3A%2F%2Ftracker.coppersurfer.tk%3A6969","udp%3A%2F%2Fexodus.desync.com%3A6969"],"infoHash":"41737bdf6848ea1d6088e1a799b6bcd40760fe75","infoHashBuffer":{"type":"Buffer","data":[65,115,123,223,104,72,234,29,96,136,225,167,153,182,188,212,7,96,254,117]},"announce":[],"urlList":[]}}